# ProBuilder 5.0.6
# https://unity3d.com/unity/features/worldbuilding/probuilder
# 2023-01-02 7:12:13 PM

mtllib ./Structure.mtl
o Structure

g Structure
v 1.85893 0.002039856 -0.28
v 3.10893 0.002039856 -0.28
v 3.10893 0.002039856 0.8026321
v 1.85893 0.002039856 0.8026321
v 2.088211 2.046307 0.8026321
v 2.088211 2.046307 -0.28
v 3.099483 1.299945 0.8026321
v 3.099483 1.299945 -0.28
v 2.688479 3.309734 0.8026321
v 2.688479 3.309734 -0.28
v 3.07475 2.102094 0.8026321
v 3.07475 2.102094 -0.28
v 3.430451 3.309734 0.8026321
v 3.430451 3.309734 -0.28
v 3.044179 2.102094 0.8026321
v 3.044179 2.102094 -0.28
v 4.030719 2.046307 0.8026321
v 4.030719 2.046307 -0.28
v 3.019447 1.299944 0.8026321
v 3.019447 1.299944 -0.28
v 4.26 0.00203951 0.8026321
v 4.26 0.00203951 -0.28
v 3.01 0.002039625 0.8026321
v 3.01 0.002039625 -0.28
v 0.9453392 7.494454E-07 -1.44
v 1.929586 7.494454E-07 -1.44
v 1.929586 7.494454E-07 0.4962949
v 0.9453392 7.494454E-07 0.4962949
v 1.34978 2.66844 0.4962949
v 1.34978 2.66844 -1.44
v 2.146053 2.045699 0.4962949
v 2.146053 2.045699 -1.44
v 2.40862 4.317626 0.4962949
v 2.40862 4.317626 -1.44
v 2.712769 3.31001 0.4962949
v 2.712769 3.31001 -1.44
v 3.717419 4.317626 0.4962949
v 3.717419 4.317626 -1.44
v 3.41327 3.31001 0.4962949
v 3.41327 3.31001 -1.44
v 4.776259 2.668439 0.4962949
v 4.776259 2.668439 -1.44
v 3.979986 2.045699 0.4962949
v 3.979986 2.045699 -1.44
v 5.1807 2.599747E-07 0.4962949
v 5.1807 2.599747E-07 -1.44
v 4.196453 2.599747E-07 0.4962949
v 4.196453 2.599747E-07 -1.44
v 5.332794 0.09 -1.819942
v 5.332794 6.65478 -1.819942
v 5.003621 0.09 -1.253005
v 5.003621 6.65478 -1.253005
v 4.345274 0.09 -1.253005
v 4.345274 6.65478 -1.253005
v 4.0161 0.09 -1.819942
v 4.0161 6.65478 -1.819942
v 4.345274 0.09 -2.386879
v 4.345274 6.65478 -2.386879
v 5.00362 0.09 -2.386879
v 5.00362 6.65478 -2.386879
v 4.674447 0.09 -1.819942
v 4.674447 6.65478 -1.819942
v 5.199938 8.43194E-10 -8
v 0.9100001 8.43194E-10 -8
v 5.199938 0.4692006 -8
v 0.9100001 0.4692006 -8
v 5.199938 0.4692006 -7.792814
v 0.9100001 0.4692006 -7.792814
v 5.199938 0.9384013 -7.792814
v 0.9100001 0.9384013 -7.792814
v 5.199938 0.9384013 -7.585627
v 0.9100001 0.9384013 -7.585627
v 5.199938 1.407602 -7.585627
v 0.9100001 1.407602 -7.585627
v 5.199938 1.407602 -7.378441
v 0.9100001 1.407602 -7.378441
v 5.199938 1.876803 -7.378441
v 0.9100001 1.876803 -7.378441
v 5.199938 1.876803 -7.171254
v 0.9100001 1.876803 -7.171254
v 5.199938 2.346003 -7.171254
v 0.9100001 2.346003 -7.171254
v 5.199938 2.346003 -6.964067
v 0.9100001 2.346003 -6.964067
v 5.199938 2.815204 -6.964067
v 0.9100001 2.815204 -6.964067
v 5.199938 2.815204 -6.756881
v 0.9100001 2.815204 -6.756881
v 5.199938 3.284405 -6.756881
v 0.9100001 3.284405 -6.756881
v 5.199938 3.284405 -6.549694
v 0.9100001 3.284405 -6.549694
v 4.979823 3.753605 -6.549694
v 1.130116 3.753605 -6.549694
v 4.979823 3.753605 -6.342508
v 1.130116 3.753605 -6.342508
v 4.626525 4.222806 -6.342508
v 1.483413 4.222806 -6.342508
v 4.711628 4.222806 -6.13532
v 1.39831 4.222806 -6.13532
v 4.402789 4.692007 -6.13532
v 1.70715 4.692007 -6.13532
v 4.402789 4.692007 -5.928135
v 1.70715 4.692007 -5.928135
v 0.9100001 8.43194E-10 -7.792814
v 0.9100001 8.43194E-10 -7.585627
v 0.9100001 8.43194E-10 -7.378441
v 0.9100001 8.43194E-10 -7.171254
v 0.9100001 8.43194E-10 -6.964067
v 0.9100001 8.43194E-10 -6.756881
v 0.9100001 8.43194E-10 -6.549694
v 0.9100001 8.43194E-10 -6.342507
v 0.9100001 8.43194E-10 -6.135321
v 0.9100001 8.43194E-10 -5.928134
v 5.199938 8.43194E-10 -7.792814
v 5.199938 8.43194E-10 -7.585627
v 5.199938 8.43194E-10 -7.378441
v 5.199938 8.43194E-10 -7.171254
v 5.199938 8.43194E-10 -6.964067
v 5.199938 8.43194E-10 -6.756881
v 5.199938 8.43194E-10 -6.549694
v 5.199938 8.43194E-10 -6.342507
v 5.199938 8.43194E-10 -6.135321
v 5.199938 8.43194E-10 -5.928134
v 6.138793 9.509922E-07 0
v 5.178793 9.509922E-07 0
v 5.178793 9.509922E-07 -8.1721
v 6.138793 9.509922E-07 -8.1721
v 5.55259 3.241666 -7.130032
v 5.55259 3.241666 0
v 4.775934 2.648353 -7.130032
v 4.775934 2.648353 0
v 4.017891 5.245125 -6.342449
v 4.017891 5.245125 0
v 3.721235 4.285126 -6.342449
v 3.721235 4.285126 0
v 2.1209 5.245125 -6.342449
v 2.1209 5.245125 0
v 2.417556 4.285126 -6.342449
v 2.417556 4.285126 0
v 0.5862002 3.241665 -7.130032
v 0.5862002 3.241665 0
v 1.362857 2.648353 -7.130032
v 1.362857 2.648353 0
v -2.861023E-06 4.759177E-07 -8.1721
v -2.861023E-06 4.759177E-07 0
v 0.9599977 4.759177E-07 -8.1721
v 0.9599977 4.759177E-07 0

vt 2.401071 0
vt 1.151071 0
vt 1.151071 1.082632
vt 2.401071 1.082632
vt -1.082632 -0.4092722
vt -1.082632 1.719087
vt 0 1.719087
vt 0 -0.4092722
vt 1.082632 1.200067
vt 1.082632 -0.1433962
vt 0 -0.1433962
vt 0 1.200067
vt -1.082632 0.8793894
vt -1.082632 2.318318
vt 0 2.318318
vt 0 0.8793894
vt 1.082632 2.056616
vt 1.082632 1.225962
vt 0 1.225962
vt 0 2.056616
vt -1.571521 1.082632
vt -0.8295496 1.082632
vt -0.8295496 0
vt -1.571521 0
vt -1.215821 1.082632
vt -1.18525 1.082632
vt -1.18525 0
vt -1.215821 0
vt 1.082632 3.319956
vt 1.082632 1.881028
vt 0 1.881028
vt 0 3.319956
vt -1.082632 1.154471
vt -1.082632 1.985125
vt 0 1.985125
vt 0 1.154471
vt 1.082632 1.977746
vt 1.082632 -0.1506127
vt 0 -0.1506127
vt 0 1.977746
vt -1.082632 -0.16028
vt -1.082632 1.183184
vt 0 1.183184
vt 0 -0.16028
vt 1.25 0
vt -2.528662E-07 0
vt -2.528662E-07 1.082632
vt 1.25 1.082632
vt 1.151071 -0.1514939
vt 1.160518 1.191936
vt 2.171789 1.964479
vt 2.401071 -0.1514939
vt -1.160518 1.191936
vt -1.151071 -0.1514939
vt -2.401071 -0.1514939
vt -2.171789 1.964479
vt 1.18525 2.022222
vt 1.571521 3.272222
vt -1.18525 2.022222
vt -1.571521 3.272222
vt -1.215821 2.022222
vt -0.8295496 3.272222
vt 1.215821 2.022222
vt 0.8295496 3.272222
vt 1.240553 1.191936
vt 0.2292815 1.964478
vt -1.240553 1.191936
vt -0.2292815 1.964478
vt 1.25 -0.1514941
vt -2.384186E-07 -0.1514943
vt -1.25 -0.1514941
vt 4.131021 0
vt 3.171021 0
vt 3.171021 1.936295
vt 4.131021 1.936295
vt -1.936295 -0.6334022
vt -1.936295 1.939359
vt 0 1.939359
vt 0 -0.6334022
vt 1.936295 1.618918
vt 1.936295 -0.3415111
vt 0 -0.3415111
vt 0 1.618918
vt -1.936295 0.07218206
vt -1.936295 1.952452
vt 0 1.952452
vt 0 0.07218206
vt 1.936295 1.862283
vt 1.936295 0.5369475
vt 0 0.5369475
vt 0 1.862283
vt -2.703789 1.936736
vt -1.426564 1.936295
vt -1.427233 -0.0004407167
vt -2.704457 2.384186E-07
vt 1.723889 1.936295
vt 2.407132 1.936295
vt 2.407132 0
vt 1.723889 0
vt 1.936295 4.221453
vt 1.936295 2.341182
vt 0 2.341182
vt 0 4.221453
vt -1.936295 2.259865
vt -1.936295 3.585201
vt 0 3.585201
vt 0 2.259865
vt 1.936295 2.572762
vt 1.936295 2.384186E-07
vt 0 2.572762
vt -1.936295 0.10339
vt -1.936295 2.063819
vt 0 2.063819
vt 0 0.10339
vt 0.96 0
vt 0 1.936295
vt 0.96 1.936295
vt 3.182464 -0.003377438
vt 2.961694 1.946141
vt 3.726948 2.544624
vt 4.132796 0.002353072
vt -2.961694 1.946142
vt -3.182464 -0.003377438
vt -4.132796 0.002352953
vt -3.726948 2.544623
vt 2.984419 1.944384
vt 2.411384 3.139671
vt 2.684234 4.107999
vt 3.740212 2.555496
vt -2.411384 3.139671
vt -2.984419 1.944384
vt -3.740212 2.555496
vt -2.684234 4.107999
vt 2.407132 3.153592
vt 1.723889 3.153592
vt 1.427233 4.113592
vt 2.703789 4.113592
vt -1.723889 3.153592
vt -2.407132 3.153592
vt -2.703789 4.113592
vt -1.427233 4.113592
vt 1.719639 3.139671
vt 1.146602 1.944384
vt 0.39081 2.555496
vt 1.446788 4.107999
vt -1.146602 1.944384
vt -1.719639 3.139671
vt -1.446788 4.107999
vt -0.39081 2.555495
vt 1.169327 1.946141
vt 0.9485571 -0.003378153
vt -0.001774669 0.002352238
vt 0.4040738 2.544623
vt -0.948557 -0.003377914
vt -1.169327 1.946141
vt -0.4040739 2.544623
vt 0.001774609 0.002352595
vt -3.196009 2.384186E-07
vt -3.196009 6.789954
vt -1.488796 2.384186E-07
vt -1.488796 6.789954
vt -2.571663 2.384186E-07
vt -2.571663 6.789954
vt -0.8572208 2.384186E-07
vt -0.8572208 6.789954
vt -0.2329056 2.384186E-07
vt -0.2329056 6.789954
vt 1.474306 2.384186E-07
vt 1.474306 6.789954
vt 3.181519 2.384186E-07
vt 3.181519 6.789954
vt 0.8572211 2.384186E-07
vt 0.8572211 6.789954
vt 2.571662 2.384186E-07
vt 2.571662 6.789954
vt -1.459816 2.384186E-07
vt -1.459816 6.789954
vt 0.2473958 2.384186E-07
vt 0.2473958 6.789954
vt -2.571663 -0.2283993
vt -1.714442 -1.704795
vt -3.428884 -1.704795
vt -0.8572208 -0.2283993
vt 0 -1.704795
vt -0.8572217 -3.181191
vt -2.571662 -3.181191
vt 3.428884 -1.704795
vt 1.714442 -1.704795
vt 2.571663 -0.2283993
vt 0.857221 -0.228399
vt 0.8572214 -3.181192
vt 2.571662 -3.181191
vt 3.899944 0
vt 3.899944 0.3976277
vt 0 0.3976277
vt 3.899944 0.01593739
vt 0 0.01593739
vt 3.899944 0.7952554
vt 0 0.7952554
vt 3.899944 0.03187484
vt 0 0.03187484
vt 3.899944 1.192883
vt 0 1.192883
vt 3.899944 0.04781228
vt 0 0.04781228
vt 3.899944 1.590511
vt 0 1.590511
vt 3.899944 0.06374961
vt 0 0.06374961
vt 3.899944 1.988138
vt 0 1.988138
vt 3.899944 0.07968712
vt 0 0.07968712
vt 3.899944 2.385766
vt 0 2.385766
vt 3.899944 0.09562454
vt 0 0.09562454
vt 3.899944 2.783394
vt 0 2.783394
vt 3.899944 0.111562
vt 0 0.111562
vt 3.69984 3.181022
vt 0.200105 3.181022
vt 3.699839 0.1103537
vt 0.2000995 0.111562
vt 3.699845 0.1274993
vt 0.2001054 0.1287076
vt 3.69977 3.179869
vt 3.378728 3.578704
vt 0.521354 3.579691
vt 3.378659 0.1274993
vt 0.5212848 0.1274993
vt 3.456026 0.1434369
vt 0.4439185 0.1434369
vt 3.455928 3.577247
vt 0.4438212 3.578718
vt 3.175359 3.976345
vt 0.7247791 3.977542
vt 3.175262 0.1434369
vt 0.7246814 0.1434369
vt 3.175262 0.1593742
vt 0.7246814 0.1593742
vt -0.01755112 7.240474E-05
vt 0.001636922 0.3964595
vt -0.0159142 0.396532
vt -0.0159142 6.559491E-05
vt -0.03509074 0.0001444817
vt -0.014283 0.3965253
vt -0.0318284 0.793064
vt -0.01428872 0.792992
vt -0.03182846 0.000131309
vt -0.05263621 0.0002169609
vt -0.02856612 0.7930506
vt -0.04774272 1.189596
vt -0.03019154 1.189523
vt -0.04774272 0.0001969337
vt -0.07018167 0.0002892613
vt -0.04284918 1.189576
vt -0.06365693 1.586128
vt -0.04611725 1.586056
vt -0.06365693 0.0002624989
vt -0.08769828 0.0003610849
vt -0.05715525 1.586102
vt -0.07957113 1.98266
vt -0.06202573 1.982588
vt -0.07957113 0.0003279448
vt -0.1053069 0.0004342794
vt -0.07138658 1.982626
vt -0.09548539 2.379192
vt -0.07793999 2.37912
vt -0.09548545 0.0003936291
vt -0.1228581 0.0005066395
vt -0.08566397 2.379151
vt -0.1113997 2.775724
vt -0.09385425 2.775652
vt -0.1167952 0.0004593134
vt -0.1350307 0.0005344152
vt -0.1053218 2.789069
vt -0.1219182 3.187516
vt -0.1156727 3.187535
vt -0.09975854 3.187469
vt -0.1014586 2.775705
vt -0.1293285 0.0005062819
vt -0.1452426 0.000571847
vt -0.1161957 3.192438
vt -0.1304224 3.602661
vt -0.2293212 3.571082
vt -0.1005855 3.608477
vt -0.06632161 3.2025
vt -0.1349138 0.000525713
vt -0.1599991 0.0006287098
vt -0.1201659 3.597739
vt -0.1435176 4.02065
vt -0.1192027 4.020613
vt -0.1032886 4.020548
vt -0.1050081 3.602614
vt 0.2123404 0.1043884
vt 0.224196 -0.3026949
vt 0.07867527 -0.2474037
vt 0.357861 0.0490972
vt 0.1025476 0.1491612
vt 0.2331686 -0.2999916
vt -0.03010273 -0.19996
vt 0.4984694 0.3982509
vt 0.2262257 0.09911266
vt 0.2262257 0.4956446
vt 0.24214 0.4956446
vt 0.1766338 0.5103338
vt 0.2498074 -0.2987632
vt 0.02912617 -0.2563021
vt 0.4710689 0.8511907
vt 0.2422085 0.8921821
vt 0.2581227 0.8921766
vt 0.21593 0.8991768
vt 0.2658777 -0.2982284
vt 0.06528616 -0.2724367
vt 0.4667363 1.263923
vt 0.2580543 1.288708
vt 0.2739685 1.288708
vt 0.24406 1.292876
vt 0.2818494 -0.2979176
vt 0.09229279 -0.2796229
vt 0.4715586 1.667707
vt 0.2739685 1.685241
vt 0.2898827 1.685241
vt 0.2674308 1.688054
vt 0.2977901 -0.2977021
vt 0.115139 -0.283594
vt 0.4805403 2.068275
vt 0.2898827 2.081773
vt 0.305797 2.081773
vt 0.2883596 2.08383
vt 0.3137193 -0.2975357
vt 0.1357832 -0.28608
vt 0.491725 2.467359
vt 0.305797 2.478304
vt 0.3217112 2.478304
vt 0.3023772 2.493327
vt 0.3350372 -0.2973979
vt 0.1489267 -0.2871265
vt 0.5104089 2.880263
vt 0.3163202 2.478129
vt 0.3055294 2.889855
vt 0.3214344 2.890272
vt 0.3098822 2.896281
vt 0.352138 -0.29725
vt 0.167057 -0.2889509
vt 0.5133176 3.297279
vt 0.2911229 2.897012
vt 0.3108974 3.311057
vt 0.4034727 3.2938
vt 0.3147912 3.301282
vt 0.3690557 -0.2971148
vt 0.1853971 -0.2904985
vt 0.5136571 3.716836
vt 0.3220395 3.304967
vt 0.3068984 3.722846
vt 0.3227945 3.723422
vt -3.899944 1.192093E-07
vt -0.7246819 3.976277
vt -3.175263 3.976277
vt -6.138793 -2.086163E-07
vt -5.178793 -2.086163E-07
vt -5.178793 -8.1721
vt -6.138793 -8.1721
vt -8.187705 -1.092236
vt -7.113787 2.269258
vt 0.0156045 2.201709
vt -0.01633835 -1.169658
vt 7.114059 1.980046
vt 8.187169 -0.7786517
vt 0.01610422 -0.8705944
vt -0.01506901 1.899827
vt -7.137861 -0.8031347
vt -6.334375 1.759841
vt 0.007829666 1.720486
vt -0.008104801 -0.8473769
vt 6.333732 1.640159
vt 7.138293 -0.3606726
vt 0.008774519 -0.4211725
vt -0.008260965 1.586342
vt 4.017891 -6.342449
vt 2.1209 -6.342449
vt 2.1209 -2.086163E-07
vt 4.017891 -2.086163E-07
vt -2.417556 -6.342449
vt -3.721235 -6.342449
vt -3.721235 -2.086163E-07
vt -2.417556 -2.086163E-07
vt 6.334374 5.492904
vt 7.137861 2.929927
vt 0.00810504 2.885684
vt -0.007829905 5.453548
vt -7.138293 2.964474
vt -6.333732 4.965305
vt 0.008260727 4.911489
vt -0.008774281 2.903975
vt 7.113787 3.361643
vt 8.187705 0.0001479387
vt 0.01633835 -0.07727468
vt -0.01560497 3.294093
vt -8.187169 0.1445411
vt -7.114059 2.903238
vt 0.01506901 2.82302
vt -0.01610422 0.0525986
vt -0.9599977 0
vt 2.861023E-06 -8.1721
vt -0.9599977 -8.1721
vt 7.138907 -2.109298
vt 6.467585 0.6831891
vt 7.204445 1.31485
vt 8.054488 -2.027457
vt -4.777438 2.645869
vt -5.189677 -0.002818346
vt -6.140275 0.001960516
vt -5.543502 3.243572
vt 7.495229 2.038815
vt 6.182769 3.68054
vt 6.429362 4.660076
vt 8.17217 2.687461
vt -3.724291 4.27244
vt -4.794993 2.644909
vt -5.555275 3.252773
vt -4.003212 5.241155
vt 3.721235 4.285125
vt 2.417556 4.285125
vt 2.1209 5.245125
vt 4.017891 5.245125
vt -2.417556 4.285125
vt -3.721235 4.285125
vt -4.017891 5.245125
vt -2.1209 5.245125
vt 0.8278413 2.061358
vt -0.3998151 0.3582565
vt -1.138362 0.9930904
vt 0.5561731 3.010258
vt -1.343803 2.64491
vt -2.414501 4.272442
vt -2.135576 5.241157
vt -0.5835161 3.25277
vt 1.361699 -0.1523862
vt 0.9506373 -2.994543
vt -0.001128197 -2.99064
vt 0.5939877 0.4074262
vt -0.9490871 -0.002825618
vt -1.361349 2.645863
vt -0.5953107 3.243576
vt 0.001487732 0.001964808

vn 0 -0.9661124 0
vn -0.9941806 0.1040763 0
vn -0.9640028 0.2568816 0
vn 0.9998307 0.01778065 0
vn 0.9999753 0.006793431 0
vn -0.5398318 0.8132472 0
vn 0.6965004 0.6932401 0
vn 0.5398318 0.8132472 0
vn -0.6965004 0.6932401 0
vn 0.9640028 0.2568816 0
vn -0.9995567 0.02876556 0
vn 0.9941806 0.1040764 0
vn -0.9999753 0.006793431 0
vn 0 0 1
vn 0 0 -1
vn 0 0 0
vn -0.9894487 0.1399737 0
vn -0.9392709 0.3315471 0
vn 0.9675944 -0.2439527 0
vn 0.9948152 -0.09825319 0
vn -0.4862551 0.8442053 0
vn 0.5489127 -0.8075537 0
vn 0.4862551 0.8442053 0
vn -0.5489127 -0.8075538 0
vn 0.9392709 0.3315471 0
vn -0.9176499 -0.3839231 0
vn 0.9894487 0.1399737 0
vn -0.9948151 -0.09825317 0
vn 1 0 -3.446154E-07
vn 0.4989403 0 0.8666363
vn -0.4989401 0 0.8666365
vn -1 0 -6.892309E-08
vn -0.4989401 0 -0.8666365
vn 0.4989401 0 -0.8666365
vn 0 0.9661124 0
vn -0.8658931 0.02002688 0.3401361
vn -0.7317863 0.04005375 0.6802721
vn -0.910817 0.3988213 0
vn -0.998399 0.05464637 0
vn -0.8459953 0.06475347 0.3580944
vn -0.6935917 0.07486056 0.7161888
vn -0.7674349 0.5393611 -0.3152258
vn -0.9938174 0.1072647 0
vn -0.8302467 0.1064917 0.3686356
vn -0.666676 0.1057187 0.7372712
vn -0.8438316 0.5184237 0
vn 0.8658933 0.02002686 0.3401358
vn 0.7317866 0.04005373 0.6802716
vn 0.9108171 0.3988209 0
vn 0.8459955 0.06475342 0.3580943
vn 0.998399 0.05464631 0
vn 0.693592 0.07486053 0.7161886
vn 0.7674351 0.5393609 -0.3152259
vn 0.8302464 0.1064916 0.3686358
vn 0.9938174 0.1072646 0
vn 0.6666756 0.1057186 0.7372717
vn 0.8438315 0.518424 0
vn 0.9850796 0.1662672 0
vn 0.9190879 0.3806989 0
vn -0.938901 -0.3325237 0
vn -0.989373 -0.1404729 0
vn 0.4500682 0.8627327 0
vn -0.4855426 -0.844588 0
vn -0.4500682 0.8627327 0
vn 0.4855426 -0.844588 0
vn -0.9190879 0.3806989 0
vn 0.8489352 -0.5105873 0
vn -0.9850796 0.1662672 0
vn 0.989373 -0.1404729 0
vn -0.1235094 0.2941749 -0.936139
vn -0.2470188 0.3018077 -0.9172741
vn 0 0.2865422 -0.955004
vn -0.3138656 0.1750839 -0.9205781
vn -0.4465469 0.1287967 -0.884773
vn -0.1811844 0.2213712 -0.9563832
vn 0.2852877 0.1891266 -0.9318343
vn 0.2289364 0.2797149 -0.9293883
vn 0.341639 0.09853827 -0.9342805
vn 0.1018943 0.2961415 -0.9396112
vn 0 0.3432939 -0.9347389
vn 0.2037885 0.2489891 -0.9444836

usemtl Lit
f 1/1/1 2/2/1 3/3/1
f 1/1/1 3/3/1 4/4/1
f 4/5/2 5/6/3 6/7/3
f 4/5/2 6/7/3 1/8/2
f 7/9/4 3/10/5 2/11/5
f 7/9/4 2/11/5 8/12/4
f 5/13/3 9/14/6 10/15/6
f 5/13/3 10/15/6 6/16/3
f 11/17/7 7/18/4 8/19/4
f 11/17/7 8/19/4 12/20/7
f 9/21/6 13/22/8 14/23/8
f 9/21/6 14/23/8 10/24/6
f 15/25/9 11/26/7 12/27/7
f 15/25/9 12/27/7 16/28/9
f 13/29/8 17/30/10 18/31/10
f 13/29/8 18/31/10 14/32/8
f 19/33/11 15/34/9 16/35/9
f 19/33/11 16/35/9 20/36/11
f 17/37/10 21/38/12 22/39/12
f 17/37/10 22/39/12 18/40/10
f 23/41/13 19/42/13 20/43/13
f 23/41/13 20/43/13 24/44/13
f 24/45/1 22/46/1 21/47/1
f 24/45/1 21/47/1 23/48/1
f 3/49/14 7/50/14 5/51/14
f 3/49/14 5/51/14 4/52/14
f 8/53/15 2/54/15 1/55/15
f 8/53/15 1/55/15 6/56/15
f 7/50/14 11/57/14 9/58/14
f 7/50/14 9/58/14 5/51/14
f 12/59/15 8/53/15 6/56/15
f 12/59/15 6/56/15 10/60/15
f 11/59/16 15/61/15 13/62/16
f 11/59/16 13/62/16 9/60/14
f 16/63/16 12/57/14 10/58/16
f 16/63/16 10/58/16 14/64/15
f 15/63/14 19/65/14 17/66/14
f 15/63/14 17/66/14 13/64/14
f 20/67/15 16/61/15 14/62/15
f 20/67/15 14/62/15 18/68/15
f 19/65/14 23/69/14 21/70/14
f 19/65/14 21/70/14 17/66/14
f 24/71/15 20/67/15 18/68/15
f 24/71/15 18/68/15 22/70/15
f 25/72/1 26/73/1 27/74/1
f 25/72/1 27/74/1 28/75/1
f 28/76/17 29/77/18 30/78/18
f 28/76/17 30/78/18 25/79/17
f 31/80/19 27/81/20 26/82/20
f 31/80/19 26/82/20 32/83/19
f 29/84/18 33/85/21 34/86/21
f 29/84/18 34/86/21 30/87/18
f 35/88/22 31/89/19 32/90/19
f 35/88/22 32/90/19 36/91/22
f 33/92/21 37/93/23 38/94/23
f 33/92/21 38/94/23 34/95/21
f 39/96/24 35/97/22 36/98/22
f 39/96/24 36/98/22 40/99/24
f 37/100/23 41/101/25 42/102/25
f 37/100/23 42/102/25 38/103/23
f 43/104/26 39/105/24 40/106/24
f 43/104/26 40/106/24 44/107/26
f 41/108/25 45/109/27 46/46/27
f 41/108/25 46/46/27 42/110/25
f 47/111/28 43/112/28 44/113/28
f 47/111/28 44/113/28 48/114/28
f 48/115/1 46/46/1 45/116/1
f 48/115/1 45/116/1 47/117/1
f 27/118/14 31/119/14 29/120/14
f 27/118/14 29/120/14 28/121/14
f 32/122/15 26/123/15 25/124/15
f 32/122/15 25/124/15 30/125/15
f 31/126/14 35/127/14 33/128/14
f 31/126/14 33/128/14 29/129/14
f 36/130/15 32/131/15 30/132/15
f 36/130/15 30/132/15 34/133/15
f 35/134/14 39/135/14 37/136/14
f 35/134/14 37/136/14 33/137/14
f 40/138/15 36/139/15 34/140/15
f 40/138/15 34/140/15 38/141/15
f 39/142/14 43/143/14 41/144/14
f 39/142/14 41/144/14 37/145/14
f 44/146/15 40/147/15 38/148/15
f 44/146/15 38/148/15 42/149/15
f 43/150/14 47/151/14 45/152/14
f 43/150/14 45/152/14 41/153/14
f 48/154/15 44/155/15 42/156/15
f 48/154/15 42/156/15 46/157/15
f 49/158/29 50/159/29 51/160/30
f 50/159/29 52/161/30 51/160/30
f 51/162/30 52/163/30 53/164/31
f 52/163/30 54/165/31 53/164/31
f 53/166/31 54/167/31 55/168/32
f 54/167/31 56/169/32 55/168/32
f 55/168/32 56/169/32 57/170/33
f 56/169/32 58/171/33 57/170/33
f 57/172/33 58/173/33 59/174/34
f 58/173/33 60/175/34 59/174/34
f 59/176/34 60/177/34 49/178/29
f 60/177/34 50/179/29 49/178/29
f 51/180/1 61/181/1 49/182/1
f 53/183/1 61/181/1 51/180/1
f 55/184/1 61/181/1 53/183/1
f 57/185/1 61/181/1 55/184/1
f 59/186/1 61/181/1 57/185/1
f 49/182/1 61/181/1 59/186/1
f 50/187/35 62/188/35 52/189/35
f 52/189/35 62/188/35 54/190/35
f 54/190/35 62/188/35 56/184/35
f 56/184/35 62/188/35 58/191/35
f 58/191/35 62/188/35 60/192/35
f 60/192/35 62/188/35 50/187/35
f 63/193/15 64/46/15 65/194/15
f 64/46/15 66/195/15 65/194/15
f 65/193/35 66/46/35 67/196/35
f 66/46/35 68/197/35 67/196/35
f 67/194/15 68/195/15 69/198/15
f 68/195/15 70/199/15 69/198/15
f 69/196/35 70/197/35 71/200/35
f 70/197/35 72/201/35 71/200/35
f 71/198/15 72/199/15 73/202/15
f 72/199/15 74/203/15 73/202/15
f 73/200/35 74/201/35 75/204/35
f 74/201/35 76/205/35 75/204/35
f 75/202/15 76/203/15 77/206/15
f 76/203/15 78/207/15 77/206/15
f 77/204/35 78/205/35 79/208/35
f 78/205/35 80/209/35 79/208/35
f 79/206/15 80/207/15 81/210/15
f 80/207/15 82/211/15 81/210/15
f 81/208/35 82/209/35 83/212/35
f 82/209/35 84/213/35 83/212/35
f 83/210/15 84/211/15 85/214/15
f 84/211/15 86/215/15 85/214/15
f 85/212/35 86/213/35 87/216/35
f 86/213/35 88/217/35 87/216/35
f 87/214/15 88/215/15 89/218/15
f 88/215/15 90/219/15 89/218/15
f 89/216/35 90/217/35 91/220/35
f 90/217/35 92/221/35 91/220/35
f 91/218/15 92/219/15 93/222/15
f 92/219/15 94/223/15 93/222/15
f 93/224/35 94/225/35 95/226/35
f 94/225/35 96/227/35 95/226/35
f 95/228/15 96/223/15 97/229/15
f 96/223/15 98/230/15 97/229/15
f 97/231/35 98/232/35 99/233/35
f 98/232/35 100/234/35 99/233/35
f 99/235/15 100/236/15 101/237/15
f 100/236/15 102/238/15 101/237/15
f 101/239/35 102/240/35 103/241/35
f 102/240/35 104/242/35 103/241/35
f 64/46/32 105/243/32 66/244/32
f 105/243/32 68/245/32 66/244/32
f 105/246/32 106/247/32 68/248/32
f 106/247/32 72/249/32 68/248/32
f 72/249/32 70/250/32 68/245/32
f 106/251/32 107/252/32 72/253/32
f 107/252/32 76/254/32 72/253/32
f 76/254/32 74/255/32 72/249/32
f 107/256/32 108/257/32 76/258/32
f 108/257/32 80/259/32 76/258/32
f 80/259/32 78/260/32 76/254/32
f 108/261/32 109/262/32 80/263/32
f 109/262/32 84/264/32 80/263/32
f 84/264/32 82/265/32 80/259/32
f 109/266/32 110/267/32 84/268/32
f 110/267/32 88/269/32 84/268/32
f 88/269/32 86/270/32 84/264/32
f 110/271/32 111/272/32 88/273/32
f 111/272/32 92/274/32 88/273/32
f 92/274/32 90/275/32 88/269/32
f 111/276/32 112/277/36 92/278/36
f 112/277/36 96/279/37 92/278/36
f 96/280/38 94/281/38 92/282/38
f 112/283/39 113/284/40 96/285/40
f 113/284/40 100/286/41 96/285/40
f 100/287/42 98/288/42 96/289/42
f 113/290/43 114/291/44 100/292/44
f 114/291/44 104/293/45 100/292/44
f 104/294/46 102/295/46 100/296/46
f 65/297/29 115/298/29 63/299/29
f 65/297/29 67/300/29 115/298/29
f 67/301/29 116/302/29 115/303/29
f 67/301/29 71/304/29 116/302/29
f 67/305/29 69/306/29 71/307/29
f 71/308/29 117/309/29 116/310/29
f 71/308/29 75/311/29 117/309/29
f 71/307/29 73/312/29 75/313/29
f 75/314/29 118/315/29 117/316/29
f 75/314/29 79/317/29 118/315/29
f 75/313/29 77/318/29 79/319/29
f 79/320/29 119/321/29 118/322/29
f 79/320/29 83/323/29 119/321/29
f 79/319/29 81/324/29 83/325/29
f 83/326/29 120/327/29 119/328/29
f 83/326/29 87/329/29 120/327/29
f 83/325/29 85/330/29 87/331/29
f 87/332/29 121/333/29 120/334/29
f 87/332/29 91/335/29 121/333/29
f 87/331/29 89/336/29 91/337/29
f 91/338/47 122/339/47 121/340/29
f 91/338/47 95/341/48 122/339/47
f 91/342/49 93/343/49 95/344/49
f 95/345/50 123/346/50 122/347/51
f 95/345/50 99/348/52 123/346/50
f 95/349/53 97/350/53 99/351/53
f 99/352/54 124/353/54 123/354/55
f 99/352/54 103/355/56 124/353/54
f 99/356/57 101/357/57 103/358/57
f 114/46/14 124/359/14 104/360/14
f 124/359/14 103/361/14 104/360/14
f 125/362/1 126/363/1 127/364/1
f 125/362/1 127/364/1 128/365/1
f 128/366/58 129/367/59 130/368/59
f 128/366/58 130/368/59 125/369/58
f 131/370/60 127/371/61 126/372/61
f 131/370/60 126/372/61 132/373/60
f 129/374/59 133/375/62 134/376/62
f 129/374/59 134/376/62 130/377/59
f 135/378/63 131/379/60 132/380/60
f 135/378/63 132/380/60 136/381/63
f 133/382/62 137/383/64 138/384/64
f 133/382/62 138/384/64 134/385/62
f 139/386/65 135/387/63 136/388/63
f 139/386/65 136/388/63 140/389/65
f 137/390/64 141/391/66 142/392/66
f 137/390/64 142/392/66 138/393/64
f 143/394/67 139/395/65 140/396/65
f 143/394/67 140/396/65 144/397/67
f 141/398/66 145/399/68 146/400/68
f 141/398/66 146/400/68 142/401/66
f 147/402/69 143/403/69 144/404/69
f 147/402/69 144/404/69 148/405/69
f 148/406/1 146/46/1 145/407/1
f 148/406/1 145/407/1 147/408/1
f 127/409/70 131/410/71 129/411/70
f 127/409/70 129/411/70 128/412/72
f 132/413/14 126/414/14 125/415/14
f 132/413/14 125/415/14 130/416/14
f 131/417/73 135/418/74 133/419/73
f 131/417/73 133/419/73 129/420/75
f 136/421/14 132/422/14 130/423/14
f 136/421/14 130/423/14 134/424/14
f 135/425/15 139/426/15 137/427/15
f 135/425/15 137/427/15 133/428/15
f 140/429/14 136/430/14 134/431/14
f 140/429/14 134/431/14 138/432/14
f 139/433/76 143/434/77 141/435/76
f 139/433/76 141/435/76 137/436/78
f 144/437/14 140/438/14 138/439/14
f 144/437/14 138/439/14 142/440/14
f 143/441/79 147/442/80 145/443/79
f 143/441/79 145/443/79 141/444/81
f 148/445/14 144/446/14 142/447/14
f 148/445/14 142/447/14 146/448/14

