# ProBuilder 5.0.6
# https://unity3d.com/unity/features/worldbuilding/probuilder
# 2023-01-06 8:33:40 PM

mtllib ./Cube.mtl
o Cube

g Cube
v -10.06995 0.04429245 10.14539
v 9.930053 0.04429245 10.14539
v -10.06995 0.8442925 10.14539
v 9.930053 0.8442925 10.14539
v 9.930053 0.04429245 -9.954762
v 9.930053 0.8442925 -9.954762
v -10.06995 0.04429245 -9.954762
v -10.06995 0.8442925 -9.954762
v -9.051574 0.5209575 9.124812
v 8.911679 0.5209575 9.124812
v -9.051574 0.5209575 -8.934186
v 8.911679 0.5209575 -8.934186
v 9.845523 0.9288223 10.06086
v -9.985417 0.9288223 10.06086
v -9.985417 0.9288223 -9.870232
v 9.845523 0.9288223 -9.870232
v -9.305055 0.914999 9.378194
v 9.16516 0.914999 9.378194
v -9.305055 0.914999 -9.187568
v 9.16516 0.914999 -9.187568

vt 10 -0.5
vt -10 -0.5
vt 10 0.3
vt -10 0.3
vt 10.05007 -0.5
vt -10.05007 -0.5
vt 10.05007 0.3
vt -10.05007 0.3
vt -9.400001 9.450075
vt 9.400001 9.450075
vt -9.400001 -9.450075
vt 9.400001 -9.450075
vt 10 -10.05007
vt -10 -10.05007
vt 10 10.05007
vt -10 10.05007
vt -10 -6.89434
vt 10 -6.89434
vt -9.91547 -6.774797
vt 9.91547 -6.774797
vt -6.858933 10.05007
vt -6.858933 -10.05007
vt -6.73939 9.965545
vt -6.73939 -9.965545
vt 6.858933 -10.05007
vt 6.858933 10.05007
vt 6.73939 -9.965545
vt 6.73939 9.965545
vt -9.486662 9.542719
vt 9.486662 9.542719
vt -9.91547 9.972747
vt 9.91547 9.972747
vt -9.493674 -9.535737
vt -9.493674 9.535737
vt -9.922703 -9.965545
vt -9.922703 9.965545
vt 9.493674 9.535737
vt 9.493674 -9.535737
vt 9.922703 9.965545
vt 9.922703 -9.965545
vt 9.486662 -9.542719
vt -9.486662 -9.542719
vt 9.91547 -9.972747
vt -9.91547 -9.972747
vt -8.981627 4.864088
vt 8.981627 4.864088
vt -9.235107 5.332565
vt 9.235107 5.332565
vt -9.029499 4.839542
vt 9.029499 4.839542
vt -9.282881 5.308074
vt 9.282881 5.308074

vn 0 0 1
vn 1 0 0
vn 0 0 -1
vn -1 0 0
vn 0 1 0
vn 0 -1 0
vn 0 0.7071068 0.7071068
vn -0.7071068 0.7071068 0
vn 0.7071068 0.7071068 0
vn 0 0.7071068 -0.7071068
vn 0 0.9997951 -0.02024495
vn 0.0203134 0.9997936 0
vn -0.0203134 0.9997936 0
vn 0 0.9997951 0.02024495
vn 0 0.5408623 -0.8411112
vn 0.8410149 0.541012 0
vn -0.8410149 0.541012 0
vn 0 0.5408623 0.8411112

usemtl Lit
f 1/1/1 2/2/1 3/3/1
f 2/2/1 4/4/1 3/3/1
f 2/5/2 5/6/2 4/7/2
f 5/6/2 6/8/2 4/7/2
f 5/1/3 7/2/3 6/3/3
f 7/2/3 8/4/3 6/3/3
f 7/5/4 1/6/4 8/7/4
f 1/6/4 3/8/4 8/7/4
f 9/9/5 10/10/5 11/11/5
f 10/10/5 12/12/5 11/11/5
f 7/13/6 5/14/6 1/15/6
f 5/14/6 2/16/6 1/15/6
f 13/19/7 3/18/7 4/17/7
f 13/19/7 14/20/7 3/18/7
f 14/23/8 8/22/8 3/21/8
f 14/23/8 15/24/8 8/22/8
f 16/27/9 4/26/9 6/25/9
f 16/27/9 13/28/9 4/26/9
f 15/19/10 6/18/10 8/17/10
f 15/19/10 16/20/10 6/18/10
f 14/31/11 18/30/11 17/29/11
f 14/31/11 13/32/11 18/30/11
f 15/35/12 17/34/12 19/33/12
f 15/35/12 14/36/12 17/34/12
f 13/39/13 20/38/13 18/37/13
f 13/39/13 16/40/13 20/38/13
f 16/43/14 19/42/14 20/41/14
f 16/43/14 15/44/14 19/42/14
f 17/47/15 10/46/15 9/45/15
f 17/47/15 18/48/15 10/46/15
f 19/51/16 9/50/16 11/49/16
f 19/51/16 17/52/16 9/50/16
f 18/51/17 12/50/17 10/49/17
f 18/51/17 20/52/17 12/50/17
f 20/47/18 11/46/18 12/45/18
f 20/47/18 19/48/18 11/46/18

