# ProBuilder 5.0.6
# https://unity3d.com/unity/features/worldbuilding/probuilder
# 2023-01-08 11:30:53 AM

mtllib ./Cylinder.mtl
o Cylinder

g Cylinder
v 2.420105 -0.05735219 -0.04904604
v 2.420105 0.7426478 -0.04904604
v 1.942647 -0.05735219 1.420417
v 1.942647 0.7426478 1.420417
v 0.6926474 -0.05735219 2.328595
v 0.6926474 0.7426478 2.328595
v -0.8524374 -0.05735219 2.328595
v -0.8524374 0.7426478 2.328595
v -2.102438 -0.05735219 1.420417
v -2.102438 0.7426478 1.420417
v -2.579895 -0.05735219 -0.04904626
v -2.579895 0.7426478 -0.04904626
v -2.102438 -0.05735219 -1.518509
v -2.102438 0.7426478 -1.518509
v -0.8524377 -0.05735219 -2.426687
v -0.8524377 0.7426478 -2.426687
v 0.6926478 -0.05735219 -2.426687
v 0.6926478 0.7426478 -2.426687
v 1.942647 -0.05735219 -1.518509
v 1.942647 0.7426478 -1.518509
v -0.07989502 -0.05735219 -0.04904604
v -0.781955 0.4272838 2.111673
v -0.07989502 0.4272838 -0.04904607
v -1.917912 0.4272838 1.286351
v -2.351809 0.4272838 -0.04904627
v -1.917912 0.4272838 -1.384443
v 1.758122 0.4272838 -1.384444
v 2.192019 0.4272838 -0.04904607
v 0.622165 0.4272838 2.111673
v 1.758122 0.4272838 1.286351
v 0.6221654 0.4272838 -2.209764
v -0.7819553 0.4272838 -2.209764
v -0.804637 0.7452368 2.181481
v -1.977295 0.7452368 1.329495
v -2.42521 0.7452368 -0.04904624
v -1.977295 0.7452368 -1.427587
v 1.817505 0.7452368 -1.427588
v 2.26542 0.7452368 -0.04904603
v 0.644847 0.7452368 2.181481
v 1.817505 0.7452368 1.329495
v 0.6448475 0.7452368 -2.279573
v -0.8046374 0.7452368 -2.279573

vt 1.469463 0
vt 1.469463 0.8
vt 2.938926 0
vt 2.938926 0.8
vt 0 0
vt 0 0.8
vt 1.25 0
vt 1.25 0.8
vt 2.795085 0
vt 2.795085 0.8
vt 4.045085 0
vt 4.045085 0.8
vt 0.4774575 3.847104
vt 2.5 2.377641
vt 0 2.377641
vt 1.727458 4.755282
vt 3.272542 4.755282
vt 4.522543 3.847104
vt 5 2.377641
vt 4.522543 0.9081783
vt 3.272543 0
vt 1.727457 0
vt 0.4774575 0.908178
vt 1.79794 4.53836
vt 0.661983 3.713038
vt 0.2280858 2.377641
vt 0.6619828 1.042244
vt 4.338017 1.042243
vt 4.771914 2.377641
vt 3.20206 4.53836
vt 4.338017 3.713039
vt 3.20206 0.2169228
vt 1.79794 0.2169228
vt 1.775258 4.608168
vt 0.6026003 3.756182
vt 0.1546853 2.377641
vt 0.6026003 0.9991001
vt 4.397399 0.9990996
vt 4.845315 2.377641
vt 3.224742 4.608168
vt 4.397399 3.756183
vt 3.224742 0.1471145
vt 1.775258 0.1471145
vt 0.1251431 0.8025889
vt 1.320483 0.4846359
vt 0.1845257 0.4846359
vt 1.297801 0.8025889
vt 0.09092212 0.8025889
vt 1.469463 0.4846359
vt 0.1340659 0.4846359
vt 1.469463 0.8025889
vt 2.804861 0.4846359
vt 2.848005 0.8025889
vt 2.724603 0.4846359
vt 2.747285 0.8025889
vt 3.86056 0.4846359
vt 3.919942 0.8025889

vn 1 0 1.566801E-08
vn 0.809017 0 0.5877852
vn 0.309017 0 0.9510565
vn -0.309017 0 0.9510565
vn -0.809017 0 0.5877852
vn -1 0 -6.267203E-08
vn -0.809017 0 -0.5877852
vn -0.309017 0 -0.9510565
vn 0.309017 0 -0.9510565
vn 0.809017 0 -0.5877852
vn 0 -1 0
vn 0 1 0
vn -0.01034239 0.9998452 0.01423508
vn -0.01673434 0.9998452 -0.005437317
vn 0.01673435 0.9998452 -0.00543732
vn 0 0.9998452 0.01759552
vn 0.0103424 0.9998452 0.01423509
vn 0.01673435 0.9998452 0.00543732
vn 0.01034239 0.9998452 -0.01423508
vn 0 0.9998452 -0.01759552
vn -0.01034239 0.9998452 -0.01423508
vn -0.01673434 0.9998452 0.005437315
vn 0.5741108 0.2144475 -0.7901956
vn 0.9289308 0.214447 0.301828
vn -0.9289308 0.2144469 0.3018279
vn 0 0.2144474 -0.9767356
vn -0.5741107 0.2144474 -0.7901957
vn -0.9289308 0.214447 -0.3018279
vn -0.5741107 0.2144473 0.7901957
vn 0 0.2144474 0.9767355
vn 0.5741109 0.2144472 0.7901956
vn 0.9289306 0.2144474 -0.3018279

usemtl Lit
f 1/1/1 2/2/1 3/3/2
f 2/2/1 4/4/2 3/3/2
f 3/5/2 4/6/2 5/7/3
f 4/6/2 6/8/3 5/7/3
f 5/7/3 6/8/3 7/9/4
f 6/8/3 8/10/4 7/9/4
f 7/9/4 8/10/4 9/11/5
f 8/10/4 10/12/5 9/11/5
f 9/5/5 10/6/5 11/1/6
f 10/6/5 12/2/6 11/1/6
f 11/1/6 12/2/6 13/3/7
f 12/2/6 14/4/7 13/3/7
f 13/5/7 14/6/7 15/7/8
f 14/6/7 16/8/8 15/7/8
f 15/7/8 16/8/8 17/9/9
f 16/8/8 18/10/9 17/9/9
f 17/9/9 18/10/9 19/11/10
f 18/10/9 20/12/10 19/11/10
f 19/5/10 20/6/10 1/1/1
f 20/6/10 2/2/1 1/1/1
f 3/13/11 21/14/11 1/15/11
f 5/16/11 21/14/11 3/13/11
f 7/17/11 21/14/11 5/16/11
f 9/18/11 21/14/11 7/17/11
f 11/19/11 21/14/11 9/18/11
f 13/20/11 21/14/11 11/19/11
f 15/21/11 21/14/11 13/20/11
f 17/22/11 21/14/11 15/21/11
f 19/23/11 21/14/11 17/22/11
f 1/15/11 21/14/11 19/23/11
f 22/24/12 23/14/12 24/25/12
f 25/26/12 23/14/12 26/27/12
f 27/28/12 23/14/12 28/29/12
f 29/30/12 23/14/12 22/24/12
f 30/31/12 23/14/12 29/30/12
f 28/29/12 23/14/12 30/31/12
f 31/32/12 23/14/12 27/28/12
f 32/33/12 23/14/12 31/32/12
f 26/27/12 23/14/12 32/33/12
f 24/25/12 23/14/12 25/26/12
f 33/34/13 10/13/13 8/16/13
f 33/34/13 34/35/13 10/13/13
f 35/36/14 14/23/14 12/15/14
f 35/36/14 36/37/14 14/23/14
f 37/38/15 2/19/15 20/20/15
f 37/38/15 38/39/15 2/19/15
f 39/40/16 8/16/16 6/17/16
f 39/40/16 33/34/16 8/16/16
f 40/41/17 6/17/17 4/18/17
f 40/41/17 39/40/17 6/17/17
f 38/39/18 4/18/18 2/19/18
f 38/39/18 40/41/18 4/18/18
f 41/42/19 20/20/19 18/21/19
f 41/42/19 37/38/19 20/20/19
f 42/43/20 18/21/20 16/22/20
f 42/43/20 41/42/20 18/21/20
f 36/37/21 16/22/21 14/23/21
f 36/37/21 42/43/21 16/22/21
f 34/35/22 12/15/22 10/13/22
f 34/35/22 35/36/22 12/15/22
f 34/44/23 22/45/23 24/46/23
f 34/44/23 33/47/23 22/45/23
f 36/48/24 25/49/24 26/50/24
f 36/48/24 35/51/24 25/49/24
f 38/51/25 27/52/25 28/49/25
f 38/51/25 37/53/25 27/52/25
f 33/47/26 29/54/26 22/45/26
f 33/47/26 39/55/26 29/54/26
f 39/55/27 30/56/27 29/54/27
f 39/55/27 40/57/27 30/56/27
f 40/48/28 28/49/28 30/50/28
f 40/48/28 38/51/28 28/49/28
f 37/44/29 31/45/29 27/46/29
f 37/44/29 41/47/29 31/45/29
f 41/47/30 32/54/30 31/45/30
f 41/47/30 42/55/30 32/54/30
f 42/55/31 26/56/31 32/54/31
f 42/55/31 36/57/31 26/56/31
f 35/51/32 24/52/32 25/49/32
f 35/51/32 34/53/32 24/52/32

