# ProBuilder 5.0.6
# https://unity3d.com/unity/features/worldbuilding/probuilder
# 2023-01-03 5:38:48 PM

mtllib ./Mesh.mtl
o Mesh

g Mesh
v 0.4654832 -5.960464E-08 0.4210097
v 0.6385167 -5.960464E-08 0.4210097
v 0.4654832 1.464221 0.4210097
v 0.6385167 1.464221 0.4210097
v 0.6385167 -5.960464E-08 0.1029903
v 0.6385167 1.464221 0.1029903
v 0.4654832 -5.960464E-08 0.1029903
v 0.4654832 1.464221 0.1029903
v -0.7500001 0 0.75
v 0.75 0 0.75
v -0.5289004 1.046576 0.6632602
v 0.4598306 1.33121 0.3196924
v 0.75 0 -0.7499999
v 0.3213233 1.368026 -0.5289005
v -0.7500001 0 -0.7499999
v -0.5520943 1.175817 -0.5063492
v 0.02516037 0.3008272 -0.7305773
v 0.3953478 0.3288721 -0.7298596
v 0.02607787 0.2861863 -0.6317198
v 0.3962654 0.3142312 -0.6310022
v 0.3659221 0.7158136 -0.6722801
v 0.3668396 0.7011728 -0.5734228
v -0.004265368 0.6877688 -0.6729979
v -0.003347874 0.6731279 -0.5741404
v 0.03112429 0.651439 -0.6454661
v 0.3363035 0.6745589 -0.6448745
v 0.05538261 0.3324478 -0.692934
v 0.3605619 0.3555676 -0.6923423
v -0.1421382 0 -0.6052543
v -0.2421382 0 -0.6052543
v -0.2421382 0 -0.8427458
v -0.1421382 0 -0.8427458
v -0.2096986 0.5173657 -0.8427458
v -0.2096986 0.5173657 -0.6052543
v -0.2804093 0.446655 -0.8427458
v -0.2804093 0.446655 -0.6052543
v -0.1790801 0.8886902 -0.8115594
v -0.1790801 0.8886902 -0.574068
v -0.2901221 0.6770955 -0.8427458
v -0.2901221 0.6770955 -0.6052543
v -0.5359095 0.5173657 -0.8427458
v -0.5359095 0.5173657 -0.6052543
v -0.4651988 0.446655 -0.8427458
v -0.4651988 0.446655 -0.6052543
v -0.6034699 -1.192093E-07 -0.8427458
v -0.6034699 -1.192093E-07 -0.6052543
v -0.50347 -1.192093E-07 -0.8427458
v -0.50347 -1.192093E-07 -0.6052543

vt 0.08651674 -0.7321104
vt -0.08651674 -0.7321104
vt 0.08651674 0.7321104
vt -0.08651674 0.7321104
vt 0.253418 -0.7321104
vt -0.253418 -0.7321104
vt 0.253418 0.7321104
vt -0.253418 0.7321104
vt -0.08651674 0.253418
vt 0.08651674 0.253418
vt -0.08651674 -0.253418
vt 0.08651674 -0.253418
vt 0.75 -0.8093846
vt -0.7500001 -0.8093846
vt 0.5289004 0.2108209
vt -0.4598307 0.5528182
vt 0.7499999 -0.8925236
vt -0.75 -0.8925236
vt 0.3196924 0.4699438
vt -0.5289006 0.5354137
vt 0.7500001 -0.8600543
vt -0.75 -0.8600543
vt 0.3213234 0.5257233
vt -0.5520942 0.3519286
vt 0.75 -0.864081
vt -0.7499999 -0.864081
vt 0.5063493 0.3282748
vt -0.6632602 0.2046762
vt -0.6014137 0.5757061
vt 0.5891733 0.3863482
vt -0.3762922 -0.7102898
vt 0.6077931 -0.5696411
vt 0.75 -0.75
vt -0.7500001 -0.75
vt 0.75 0.7499999
vt -0.7500001 0.7499999
vt 0.2329119 -0.02741182
vt -0.2329856 -0.02843624
vt 0.2329856 0.02843636
vt -0.2329119 0.02741182
vt 0.2410382 -0.02863373
vt -0.2342369 -0.07799967
vt 0.2342369 0.07799955
vt -0.2410383 0.02863379
vt 0.2329856 -0.02843603
vt -0.2329118 -0.02741179
vt 0.2329119 0.02741182
vt -0.2329856 0.02843615
vt 0.2342369 -0.07799952
vt -0.2410383 -0.02863373
vt 0.2410381 0.02863382
vt -0.2342369 0.07799965
vt -0.2326077 0.2462342
vt 0.2329463 0.2467498
vt -0.2329463 -0.2467499
vt 0.2326077 -0.2462342
vt 0.1920388 -0.2034182
vt -0.1917597 -0.2029932
vt 0.1917597 0.2029936
vt -0.1920388 0.2034188
vt 0.2330848 -0.2376938
vt -0.23289 -0.2383708
vt 0.1921752 -0.1902882
vt -0.1919703 -0.1908464
vt 0.2203603 0.2491308
vt 0.236864 -0.2406633
vt 0.1626724 0.1997509
vt 0.1762781 -0.2040311
vt -0.2378485 -0.2375201
vt -0.2180834 0.2501151
vt -0.1737196 -0.2005095
vt -0.1574254 0.2014927
vt -0.2329066 0.2383939
vt 0.2330686 0.237708
vt -0.1920077 0.1908611
vt 0.192138 0.1902956
vt -0.2306659 0.04997635
vt -0.1306658 0.04997635
vt -0.1306658 -0.04997635
vt -0.2306659 -0.04997635
vt -0.04997635 -0.392621
vt -0.04997635 0.1291373
vt 0.04997635 0.1291373
vt 0.04997635 -0.392621
vt 0.04997635 0.0726393
vt 0.04997635 -0.3756523
vt -0.04997635 -0.3756523
vt -0.04997635 0.0726393
vt -0.04903102 0.1547499
vt -0.0687269 0.5338943
vt 0.06215644 0.5466832
vt 0.08185229 0.1675388
vt 0.04997635 0.3075048
vt 0.04997635 0.07685968
vt -0.04997635 0.07685968
vt -0.04997635 0.3075048
vt 0.06894207 0.5089576
vt 0.04947716 -0.01079971
vt -0.08206725 -0.001479626
vt -0.0626024 0.5182776
vt -0.04997635 0.008460701
vt -0.04997635 0.2978647
vt 0.04997635 0.2978647
vt 0.04997635 0.008460701
vt 0.1306659 0.04997635
vt 0.2306658 0.04997635
vt 0.2306658 -0.04997635
vt 0.1306659 -0.04997635
vt 0.1306657 -0.3658328
vt 0.09239459 0.0808222
vt 0.1631054 0.1515329
vt 0.2306657 -0.3658328
vt -0.09239465 0.0808222
vt -0.1306658 -0.3658328
vt -0.2306658 -0.3658328
vt -0.1631054 0.1515329
vt 0.08539438 0.0805589
vt 0.07641411 0.310817
vt 0.1882244 0.5226008
vt 0.1455847 0.1509459
vt -0.08268195 0.3112627
vt -0.193724 0.5228575
vt 0.08268195 0.3112627
vt 0.193724 0.5228575
vt 0.1149686 0.08011723
vt -0.08085948 0.3049935
vt -0.1759648 0.5271286
vt 0.1683361 0.1285352

vn 0 0 0.62746
vn 1 0 0
vn 0 0 -0.62746
vn -1 0 0
vn 0 1 0
vn 0 -1 0
vn 0 0.13095 0.6220569
vn 0.1555805 0.3094523 0.5668828
vn 0.311161 0.4879545 0.5117086
vn 0.977058 0.2129734 0
vn 0.9604563 0.2657 -0.02760686
vn 0.9438545 0.3184265 -0.05521373
vn 0 0.2494355 -0.6076269
vn -0.05543751 0.288935 -0.5980911
vn -0.110875 0.3284345 -0.5885553
vn -0.9861293 0.1659788 0
vn -0.9817326 0.1879901 0.008383178
vn -0.9773359 0.2100015 0.01676636
vn -0.2399093 0.9682598 0.04399645
vn -0.226341 0.9720821 0.03716934
vn -0.2127727 0.9759044 0.03034224
vn 0.07550167 -0.9928274 -0.05816581
vn 0.9971419 0.07554203 0.0007609468
vn -0.07550166 0.9928274 0.05816592
vn -0.9971419 -0.07554194 -0.0007611773
vn 0.01439488 -0.229696 0.6106164
vn -0.01439455 0.2296959 -0.6106164
vn 0.0585108 -0.7452389 -0.4167749
vn 0.8344252 0.1864508 -0.3254157
vn -0.8511935 0.0589539 -0.3272396
vn -0.06653275 0.8961188 -0.2753288
vn 0.9915813 0.1294861 0
vn 0.999717 0.02378734 0
vn -0.9979655 -0.06375614 0
vn -0.9963492 -0.08537106 0
vn 0.4113026 0.9114988 0
vn -0.2991421 -0.9542086 0
vn -0.9014571 0.4328684 0
vn 0.7962588 -0.6049562 0
vn -0.9915813 0.1294861 0
vn 0.9963492 -0.08537117 0
vn 0.1199244 0.07950167 -0.597059
vn 0.3827209 0.01613117 -0.5795993
vn -0.1428722 0.1428722 -0.6145185
vn -0.1106553 -0.05571461 0.6176767
vn -0.2213106 -0.1114292 0.6078935
vn -0.1065951 0.1640253 -0.6024525
vn -0.2131901 0.3280505 -0.5774449
vn 0.2774487 -0.2705719 0.5077377
vn 0.62284 -0.4732015 0.3909185
vn -0.06794248 -0.06794242 0.6245568

usemtl Lit
f 1/1/1 2/2/1 3/3/1
f 2/2/1 4/4/1 3/3/1
f 2/5/2 5/6/2 4/7/2
f 5/6/2 6/8/2 4/7/2
f 5/1/3 7/2/3 6/3/3
f 7/2/3 8/4/3 6/3/3
f 7/5/4 1/6/4 8/7/4
f 1/6/4 3/8/4 8/7/4
f 3/9/5 4/10/5 8/11/5
f 4/10/5 6/12/5 8/11/5
f 7/12/6 5/11/6 1/10/6
f 5/11/6 2/9/6 1/10/6
f 9/13/7 10/14/8 11/15/8
f 10/14/8 12/16/9 11/15/8
f 10/17/10 13/18/11 12/19/11
f 13/18/11 14/20/12 12/19/11
f 13/21/13 15/22/14 14/23/14
f 15/22/14 16/24/15 14/23/14
f 15/25/16 9/26/17 16/27/17
f 9/26/17 11/28/18 16/27/17
f 11/29/19 12/30/20 16/31/20
f 12/30/20 14/32/21 16/31/20
f 15/33/6 13/34/6 9/35/6
f 13/34/6 10/36/6 9/35/6
f 17/37/22 18/38/22 19/39/22
f 18/38/22 20/40/22 19/39/22
f 18/41/23 21/42/23 20/43/23
f 21/42/23 22/44/23 20/43/23
f 21/45/24 23/46/24 22/47/24
f 23/46/24 24/48/24 22/47/24
f 23/49/25 17/50/25 24/51/25
f 17/50/25 19/52/25 24/51/25
f 19/53/26 20/54/26 24/55/26
f 20/54/26 22/56/26 24/55/26
f 25/57/27 26/58/27 27/59/27
f 26/58/27 28/60/27 27/59/27
f 23/61/28 21/62/28 25/63/28
f 21/62/28 26/64/28 25/63/28
f 17/65/29 23/66/29 27/67/29
f 23/66/29 25/68/29 27/67/29
f 21/69/30 18/70/30 26/71/30
f 18/70/30 28/72/30 26/71/30
f 18/73/31 17/74/31 28/75/31
f 17/74/31 27/76/31 28/75/31
f 29/77/6 30/78/6 31/79/6
f 29/77/6 31/79/6 32/80/6
f 32/81/32 33/82/33 34/83/33
f 32/81/32 34/83/33 29/84/32
f 35/85/34 31/86/35 30/87/35
f 35/85/34 30/87/35 36/88/34
f 33/89/33 37/90/36 38/91/36
f 33/89/33 38/91/36 34/92/33
f 39/93/37 35/94/34 36/95/34
f 39/93/37 36/95/34 40/96/37
f 37/97/36 41/98/38 42/99/38
f 37/97/36 42/99/38 38/100/36
f 43/101/39 39/102/37 40/103/37
f 43/101/39 40/103/37 44/104/39
f 41/83/38 45/84/40 46/81/40
f 41/83/38 46/81/40 42/82/38
f 47/87/41 43/88/41 44/85/41
f 47/87/41 44/85/41 48/86/41
f 48/105/6 46/106/6 45/107/6
f 48/105/6 45/107/6 47/108/6
f 31/109/3 35/110/3 33/111/3
f 31/109/3 33/111/3 32/112/3
f 36/113/1 30/114/1 29/115/1
f 36/113/1 29/115/1 34/116/1
f 35/117/42 39/118/43 37/119/42
f 35/117/42 37/119/42 33/120/44
f 40/121/45 36/113/1 34/116/45
f 40/121/45 34/116/45 38/122/46
f 39/123/47 43/113/3 41/116/47
f 39/123/47 41/116/47 37/124/48
f 44/125/49 40/126/50 38/127/49
f 44/125/49 38/127/49 42/128/51
f 43/113/3 47/114/3 45/115/3
f 43/113/3 45/115/3 41/116/3
f 48/109/1 44/110/1 42/111/1
f 48/109/1 42/111/1 46/112/1

