# ProBuilder 5.0.6
# https://unity3d.com/unity/features/worldbuilding/probuilder
# 2023-01-03 2:45:30 PM

mtllib ./WindmillStructureFixed.mtl
o WindmillStructureFixed

g Mesh
v 0 5.92376 4.768372E-06
v -2.182381 3.238725 1.260004
v -1.26 3.238725 2.182384
v 0 3.238725 4.768372E-06
v 1.26 3.238725 2.182384
v 2.18238 3.238725 1.260004
v 2.18238 3.238725 -1.260005
v 1.26 3.238725 -2.182385
v -1.26 3.238725 -2.182385
v -2.182381 3.238725 -1.260005
v 1.14334 3.26309 -1.906345
v -1.110001 3.26309 -1.906345
v 0.01667023 3.26309 -0.01237488
v -1.110001 3.26309 1.881596
v 1.14334 3.26309 1.881596
v -1.110001 -5.92376 -1.906345
v 1.14334 -5.92376 -1.906345
v 0.01667023 -5.92376 -0.01237488
v 1.14334 -5.92376 1.881596
v -1.110001 -5.92376 1.881596
v -2.52 3.238725 4.768372E-06
v 0 3.238725 2.520004
v 2.52 3.238725 4.768372E-06
v 0 3.238725 -2.520005
v -1.30031 -5.416564 -1.296495
v -0.3403091 -5.416564 -2.334315
v -0.3403091 -5.416564 -1.296495
v -1.30031 -5.416564 -2.334315
v -0.655159 -2.710956 -1.296495
v -0.655159 -2.710956 -2.334315
v -0.1751595 -3.670955 -2.334315
v -0.1751595 -3.670955 -1.296495
v 0.63515 -2.710956 -1.296495
v 0.63515 -2.710956 -2.334315
v 0.15516 -3.670956 -2.334315
v 0.15516 -3.670956 -1.296495
v 1.28031 -5.416564 -1.296495
v 1.28031 -5.416564 -2.334315
v 0.3203106 -5.416564 -2.334315
v 0.3203106 -5.416564 -1.296495
v -2.23666 -5.92376 -0.01237488
v -2.23666 3.26309 -0.01237488
v 2.27 -5.92376 -0.01237488
v 2.27 3.26309 -0.01237488

vt 0.7764574 4.170985
vt 0 0
vt 1.552914 0
vt -0.8872595 1.161779
vt -0.1372595 -0.1372595
vt -0.1372595 1.36274
vt 1.161778 0.8872596
vt -0.1372595 0.1372594
vt 1.362741 0.1372595
vt 0.8872594 -1.161778
vt 0.1372593 0.1372595
vt 0.1372596 -1.362741
vt -1.161778 -0.8872603
vt 0.1372596 -0.1372599
vt -1.36274 -0.1372594
vt 2.398844 -8.688959
vt 7.196534 -8.688959
vt 4.797689 -4.656399
vt 7.196538 -0.6238384
vt 2.398845 -0.6238379
vt -7.196534 -8.688959
vt -2.398845 -8.688959
vt -4.797689 -4.656399
vt -2.398845 -0.6238389
vt -7.196538 -0.6238384
vt -1.412981 0.3247595
vt 0.08701903 0.3247595
vt -1.212019 1.074759
vt -0.9374999 1.248798
vt 0.3247597 1.412981
vt 0.3247595 -0.08701909
vt 1.07476 1.212019
vt 1.248798 0.9375
vt 1.412981 -0.3247595
vt -0.08701885 -0.3247595
vt 1.212019 -1.074759
vt 0.9374999 -1.248798
vt -0.3247592 -1.412981
vt -0.3247593 0.08701921
vt -1.07476 -1.212018
vt -1.248798 -0.9375002
vt -1.29031 0.5189075
vt -0.3303099 -0.5189075
vt -0.3303099 0.5189075
vt -1.29031 -0.5189075
vt -0.5189075 -1.615196
vt 0.5189075 1.166268
vt -0.5189075 1.166268
vt 0.5189075 -1.615196
vt 0.5189075 0.3755019
vt -0.5189075 -1.377902
vt 0.5189075 -1.377902
vt -0.5189075 0.3755019
vt 0.6451549 -0.5189075
vt -0.645155 0.5189075
vt -0.645155 -0.5189075
vt 0.6451549 0.5189075
vt 0.1651548 -0.5189075
vt -0.1651551 0.5189075
vt -0.1651551 -0.5189075
vt 0.1651548 0.5189075
vt 0.3303101 0.5189075
vt 1.29031 -0.5189075
vt 1.29031 0.5189075
vt 0.3303101 -0.5189075
vt 0.3303099 -1.352804
vt 1.29031 -1.352804
vt 0.6451549 1.352804
vt 0.1651549 0.3928044
vt -0.6451549 1.352804
vt -0.1651549 0.3928044
vt -1.29031 -1.352804
vt -0.3303099 -1.352804
vt -8.907493 0
vt -4.215373 0
vt -8.907493 11.81016
vt -4.215373 11.81016
vt -7.196534 0
vt -2.398845 0
vt -7.196534 11.81016
vt -2.398845 11.81016
vt -0.6902609 0
vt 4.00186 0
vt -0.6902609 11.81016
vt 4.00186 11.81016
vt 8.693981 0
vt 8.693981 11.81016
vt 2.398845 0
vt 7.196534 0
vt 2.398845 11.81016
vt 7.196534 11.81016
vt -3.788347 0
vt 0.9037747 0
vt -3.788347 11.81016
vt 0.9037747 11.81016
vt 0 -4.6564
vt 9.595379 -4.656399
vt -9.595379 -4.656399

vn 9.983747E-08 1 7.765137E-07
vn -0.6314712 0.6843424 0.3645814
vn -0.3645813 0.6843423 0.6314713
vn 0 -1 0
vn 0.3645815 0.6843423 0.6314713
vn 0.6314713 0.6843423 0.3645815
vn 0.6314711 0.684343 -0.3645804
vn 0.3645809 0.6843436 -0.6314701
vn -0.3645808 0.6843436 -0.6314703
vn -0.6314711 0.6843431 -0.3645803
vn -0.7291603 0.6843429 7.819198E-07
vn 0 0.6843428 0.7291605
vn 0.7291603 0.6843429 7.743284E-07
vn 0 0.6843443 -0.7291591
vn -0.9727285 0.2319467 0
vn -0.6196988 0.7848397 0
vn 0.6729819 -0.739659 0
vn 0.9955544 -0.09418805 0
vn 0.6196976 0.7848406 0
vn 0.9727278 0.2319496 0
vn -0.9955544 -0.09418863 0
vn 0 0 -1
vn 0 0 1
vn -1 0 0
vn -0.494344 0 0.8692664
vn 0.4943439 0 0.8692665
vn 1 0 0
vn 0.4943439 0 -0.8692665
vn -0.494344 0 -0.8692664

usemtl Player2Color
f 1/1/1 2/2/2 3/3/3
f 2/4/4 4/5/4 3/6/4
f 1/1/1 5/2/5 6/3/6
f 5/7/4 4/8/4 6/9/4
f 1/1/1 7/2/7 8/3/8
f 7/10/4 4/11/4 8/12/4
f 1/1/1 9/2/9 10/3/10
f 9/13/4 4/14/4 10/15/4
f 11/16/1 12/17/1 13/18/1
f 14/19/1 15/20/1 13/18/1
f 16/21/4 17/22/4 18/23/4
f 19/24/4 20/25/4 18/23/4
f 1/1/1 10/2/10 21/3/11
f 1/1/1 21/3/11 2/3/2
f 10/26/4 4/27/4 21/28/4
f 21/28/4 4/27/4 2/29/4
f 1/1/1 3/2/3 22/3/12
f 1/1/1 22/3/12 5/3/5
f 3/30/4 4/31/4 22/32/4
f 22/32/4 4/31/4 5/33/4
f 1/1/1 6/2/6 23/3/13
f 1/1/1 23/3/13 7/3/7
f 6/34/4 4/35/4 23/36/4
f 23/36/4 4/35/4 7/37/4
f 1/1/1 8/2/8 24/3/14
f 1/1/1 24/3/14 9/3/9
f 8/38/4 4/39/4 24/40/4
f 24/40/4 4/39/4 9/41/4
f 25/42/4 26/43/4 27/44/4
f 25/42/4 28/45/4 26/43/4
f 28/46/15 29/47/16 30/48/16
f 28/46/15 25/49/15 29/47/16
f 31/50/17 27/51/18 26/52/18
f 31/50/17 32/53/17 27/51/18
f 30/54/16 33/55/19 34/56/19
f 30/54/16 29/57/16 33/55/19
f 35/58/4 32/59/17 31/60/17
f 35/58/4 36/61/4 32/59/17
f 34/47/19 37/46/20 38/49/20
f 34/47/19 33/48/19 37/46/20
f 39/51/21 36/50/21 35/53/21
f 39/51/21 40/52/21 36/50/21
f 40/62/4 38/63/4 37/64/4
f 40/62/4 39/65/4 38/63/4
f 26/66/22 28/67/22 30/68/22
f 26/66/22 30/68/22 31/69/22
f 31/69/22 30/68/22 34/70/22
f 31/69/22 34/70/22 35/71/22
f 35/71/22 34/70/22 38/72/22
f 35/71/22 38/72/22 39/73/22
f 32/71/23 25/72/23 27/73/23
f 32/71/23 29/70/23 25/72/23
f 36/69/23 29/70/23 32/71/23
f 36/69/23 33/68/23 29/70/23
f 40/66/23 33/68/23 36/69/23
f 40/66/23 37/67/23 33/68/23
f 41/74/24 20/75/25 42/76/24
f 42/76/24 20/75/25 14/77/25
f 20/78/25 19/79/26 14/80/25
f 14/80/25 19/79/26 15/81/26
f 19/82/26 43/83/27 15/84/26
f 15/84/26 43/83/27 44/85/27
f 43/83/27 17/86/28 44/85/27
f 44/85/27 17/86/28 11/87/28
f 17/88/28 16/89/29 11/90/28
f 11/90/28 16/89/29 12/91/29
f 16/92/29 41/93/24 12/94/29
f 12/94/29 41/93/24 42/95/24
f 44/96/1 11/16/1 13/18/1
f 15/20/1 44/96/1 13/18/1
f 12/17/1 42/97/1 13/18/1
f 42/97/1 14/19/1 13/18/1
f 41/98/4 16/21/4 18/23/4
f 20/25/4 41/98/4 18/23/4
f 17/22/4 43/96/4 18/23/4
f 43/96/4 19/24/4 18/23/4

