# ProBuilder 5.0.6
# https://unity3d.com/unity/features/worldbuilding/probuilder
# 2023-01-03 2:18:56 PM

mtllib ./WindmillStructure.mtl
o WindmillStructure

g Mesh
v 17.14031 0.5071961 13.60891
v 16.18031 0.5071961 13.60891
v 16.18031 0.5071961 12.57109
v 17.14031 0.5071961 12.57109
v 16.49516 3.212804 12.57109
v 16.49516 3.212804 13.60891
v 16.01516 2.252805 12.57109
v 16.01516 2.252805 13.60891
v 15.20485 3.212804 12.57109
v 15.20485 3.212804 13.60891
v 15.68484 2.252804 12.57109
v 15.68484 2.252804 13.60891
v 14.55969 0.5071958 12.57109
v 14.55969 0.5071958 13.60891
v 15.51969 0.5071959 12.57109
v 15.51969 0.5071959 13.60891
v 18.07666 0 14.89303
v 18.07666 9.18685 14.89303
v 16.95 0 16.787
v 16.95 9.18685 16.787
v 14.69666 0 16.787
v 14.69666 9.18685 16.787
v 13.57 0 14.89303
v 13.57 9.18685 14.89303
v 14.69666 0 12.99906
v 14.69666 9.18685 12.99906
v 16.95 0 12.99906
v 16.95 9.18685 12.99906
v 15.82333 0 14.89303
v 15.82333 9.18685 14.89303
v 15.84 11.84752 14.90541
v 18.36 9.162485 14.90541
v 18.02238 9.162485 13.6454
v 15.84 9.162485 14.90541
v 18.02238 9.162485 16.16541
v 17.1 9.162485 17.08779
v 15.84 9.162485 17.42541
v 14.58 9.162485 17.08779
v 13.65762 9.162485 16.16541
v 13.32 9.162485 14.90541
v 13.65762 9.162485 13.6454
v 14.58 9.162485 12.72302
v 15.84 9.162485 12.3854
v 17.1 9.162485 12.72302

vt -1.29031 0.5189075
vt -0.3303099 0.5189075
vt -0.3303099 -0.5189075
vt -1.29031 -0.5189075
vt -0.5189075 -1.615196
vt -0.5189075 1.166268
vt 0.5189075 1.166268
vt 0.5189075 -1.615196
vt 0.5189075 0.3755019
vt 0.5189075 -1.377902
vt -0.5189075 -1.377902
vt -0.5189075 0.3755019
vt 0.6451549 -0.5189075
vt -0.645155 -0.5189075
vt -0.645155 0.5189075
vt 0.6451549 0.5189075
vt 0.1651548 -0.5189075
vt -0.1651551 -0.5189075
vt -0.1651551 0.5189075
vt 0.1651548 0.5189075
vt 0.3303101 0.5189075
vt 1.29031 0.5189075
vt 1.29031 -0.5189075
vt 0.3303101 -0.5189075
vt 0.3303099 -1.352804
vt 0.1651549 0.3928044
vt 0.6451549 1.352804
vt 1.29031 -1.352804
vt -0.1651549 0.3928044
vt -0.3303099 -1.352804
vt -1.29031 -1.352804
vt -0.6451549 1.352804
vt -8.907493 0
vt -8.907493 11.81016
vt -4.215373 0
vt -4.215373 11.81016
vt -7.196534 0
vt -7.196534 11.81016
vt -2.398845 0
vt -2.398845 11.81016
vt -0.6902609 0
vt -0.6902609 11.81016
vt 4.00186 0
vt 4.00186 11.81016
vt 8.693981 0
vt 8.693981 11.81016
vt 2.398845 0
vt 2.398845 11.81016
vt 7.196534 0
vt 7.196534 11.81016
vt -3.788347 0
vt -3.788347 11.81016
vt 0.9037747 0
vt 0.9037747 11.81016
vt -7.196538 -0.6238384
vt -4.797689 -4.656399
vt -9.595379 -4.656399
vt -2.398845 -0.6238389
vt 0 -4.6564
vt -2.398845 -8.688959
vt -7.196534 -8.688959
vt 9.595379 -4.656399
vt 4.797689 -4.656399
vt 7.196538 -0.6238384
vt 2.398845 -0.6238379
vt 2.398844 -8.688959
vt 7.196534 -8.688959
vt 0.7764574 4.170985
vt 1.552914 0
vt 0 0
vt -1.412981 0.3247595
vt -1.212019 1.074759
vt 0.08701903 0.3247595
vt -1.486538 0.6997596
vt -0.9374999 1.248798
vt -0.1875001 -0.05024052
vt -0.8872595 1.161779
vt -0.1372595 1.36274
vt -0.1372595 -0.1372595
vt 0.3247597 1.412981
vt 1.07476 1.212019
vt 0.3247595 -0.08701909
vt 0.6997592 1.486538
vt 1.248798 0.9375
vt -0.05024046 0.1874998
vt 1.161778 0.8872596
vt 1.362741 0.1372595
vt -0.1372595 0.1372594
vt 1.412981 -0.3247595
vt 1.212019 -1.074759
vt -0.08701885 -0.3247595
vt 1.486538 -0.69976
vt 0.9374999 -1.248798
vt 0.1875006 0.05024099
vt 0.8872594 -1.161778
vt 0.1372596 -1.362741
vt 0.1372593 0.1372595
vt -0.3247592 -1.412981
vt -1.07476 -1.212018
vt -0.3247593 0.08701921
vt -0.6997589 -1.486538
vt -1.248798 -0.9375002
vt 0.05024046 -0.1874998
vt -1.161778 -0.8872603
vt -1.36274 -0.1372594
vt 0.1372596 -0.1372599

vn 0 -1 0
vn 0.9727282 0.231948 0
vn 0.6196983 0.7848401 0
vn -0.6729816 -0.7396592 0
vn -0.9955541 -0.09419107 0
vn -0.6196983 0.78484 0
vn -0.9727283 0.231948 0
vn 0.9955541 -0.09419105 0
vn 0 0 -1
vn 0 0 1
vn 1 0 -1.38707E-07
vn 0.4943435 0 0.8692666
vn -0.4943432 0 0.8692668
vn -1 0 2.080605E-07
vn -0.4943433 0 -0.8692667
vn 0.4943433 0 -0.8692667
vn 0 1 0
vn 0.7291597 0.6843436 0
vn 0.6314706 0.6843436 -0.3645802
vn 0.6314709 0.6843436 0.3645798
vn 0.3645798 0.6843436 0.6314709
vn -6.832308E-08 0.6843436 0.7291597
vn -0.3645799 0.6843435 0.6314709
vn -0.6314709 0.6843435 0.3645799
vn -0.7291598 0.6843435 2.581094E-07
vn -0.6314708 0.6843436 -0.3645798
vn -0.3645799 0.6843435 -0.6314709
vn -1.214632E-07 0.6843436 -0.7291597
vn 0.3645797 0.6843435 -0.631471

usemtl Lit
f 1/1/1 2/2/1 3/3/1
f 1/1/1 3/3/1 4/4/1
f 4/5/2 5/6/3 6/7/3
f 4/5/2 6/7/3 1/8/2
f 7/9/4 3/10/5 2/11/5
f 7/9/4 2/11/5 8/12/4
f 5/13/3 9/14/6 10/15/6
f 5/13/3 10/15/6 6/16/3
f 11/17/1 7/18/4 8/19/4
f 11/17/1 8/19/4 12/20/1
f 9/7/6 13/8/7 14/5/7
f 9/7/6 14/5/7 10/6/6
f 15/11/8 11/12/8 12/9/8
f 15/11/8 12/9/8 16/10/8
f 16/21/1 14/22/1 13/23/1
f 16/21/1 13/23/1 15/24/1
f 3/25/9 7/26/9 5/27/9
f 3/25/9 5/27/9 4/28/9
f 8/29/10 2/30/10 1/31/10
f 8/29/10 1/31/10 6/32/10
f 7/26/9 11/29/9 9/32/9
f 7/26/9 9/32/9 5/27/9
f 12/26/10 8/29/10 6/32/10
f 12/26/10 6/32/10 10/27/10
f 11/29/9 15/30/9 13/31/9
f 11/29/9 13/31/9 9/32/9
f 16/25/10 12/26/10 10/27/10
f 16/25/10 10/27/10 14/28/10
f 17/33/11 18/34/11 19/35/12
f 18/34/11 20/36/12 19/35/12
f 19/37/12 20/38/12 21/39/13
f 20/38/12 22/40/13 21/39/13
f 21/41/13 22/42/13 23/43/14
f 22/42/13 24/44/14 23/43/14
f 23/43/14 24/44/14 25/45/15
f 24/44/14 26/46/15 25/45/15
f 25/47/15 26/48/15 27/49/16
f 26/48/15 28/50/16 27/49/16
f 27/51/16 28/52/16 17/53/11
f 28/52/16 18/54/11 17/53/11
f 19/55/1 29/56/1 17/57/1
f 21/58/1 29/56/1 19/55/1
f 23/59/1 29/56/1 21/58/1
f 25/60/1 29/56/1 23/59/1
f 27/61/1 29/56/1 25/60/1
f 17/57/1 29/56/1 27/61/1
f 18/62/17 30/63/17 20/64/17
f 20/64/17 30/63/17 22/65/17
f 22/65/17 30/63/17 24/59/17
f 24/59/17 30/63/17 26/66/17
f 26/66/17 30/63/17 28/67/17
f 28/67/17 30/63/17 18/62/17
f 31/68/17 32/69/18 33/70/19
f 33/71/1 32/72/1 34/73/1
f 31/68/17 35/69/20 32/70/18
f 32/74/1 35/75/1 34/76/1
f 31/68/17 36/69/21 35/70/20
f 35/77/1 36/78/1 34/79/1
f 31/68/17 37/69/22 36/70/21
f 36/80/1 37/81/1 34/82/1
f 31/68/17 38/69/23 37/70/22
f 37/83/1 38/84/1 34/85/1
f 31/68/17 39/69/24 38/70/23
f 38/86/1 39/87/1 34/88/1
f 31/68/17 40/69/25 39/70/24
f 39/89/1 40/90/1 34/91/1
f 31/68/17 41/69/26 40/70/25
f 40/92/1 41/93/1 34/94/1
f 31/68/17 42/69/27 41/70/26
f 41/95/1 42/96/1 34/97/1
f 31/68/17 43/69/28 42/70/27
f 42/98/1 43/99/1 34/100/1
f 31/68/17 44/69/29 43/70/28
f 43/101/1 44/102/1 34/103/1
f 31/68/17 33/69/19 44/70/29
f 44/104/1 33/105/1 34/106/1

