# ProBuilder 5.0.6
# https://unity3d.com/unity/features/worldbuilding/probuilder
# 2023-01-03 2:18:12 PM

mtllib ./WindmillBlades.mtl
o WindmillBlades

g Mesh
v 15.79776 5.666963 13.36953
v 15.79776 5.666963 12.15047
v 16.14383 6.023551 13.36953
v 16.14383 6.023551 12.15047
v 15.79776 6.38014 13.36953
v 15.79776 6.38014 12.15047
v 15.45168 6.023551 13.36953
v 15.45168 6.023551 12.15047
v 15.79776 6.023551 13.36953
v 15.79776 6.023551 12.15047
v 17.77859 3.32133 12.24834
v 18.48867 4.031414 12.24834
v 17.77859 3.32133 12.41166
v 18.48867 4.031414 12.41166
v 13.82141 8.69867 12.24834
v 13.82141 8.69867 12.41166
v 13.11133 7.988587 12.24834
v 13.11133 7.988586 12.41166
v 18.48867 7.988587 12.24834
v 17.77859 8.69867 12.24834
v 18.48867 7.988586 12.41166
v 17.77859 8.69867 12.41166
v 13.11133 4.031414 12.24834
v 13.11133 4.031414 12.41166
v 13.82141 3.32133 12.24834
v 13.82141 3.32133 12.41166

vt -0.2558903 -1.01754
vt -0.2558903 1.01754
vt 0.2410236 -1.01754
vt 0.2410236 1.01754
vt -0.2410236 -1.01754
vt -0.2410236 1.01754
vt 0.2558903 -1.01754
vt 0.2558903 1.01754
vt 1.558698E-08 0.3460751
vt 0 0
vt -0.3565886 0
vt 0.3565886 -3.025484E-08
vt -4.252276E-09 -0.3460751
vt 0.4484051 -0.1407853
vt -0.4483079 -0.1410948
vt 0.4483079 0.1410947
vt -0.448405 0.1407852
vt 5.690084 -0.1407861
vt -5.690084 -0.1407853
vt 5.690084 0.1407853
vt -5.690084 0.140786
vt -0.4483077 -0.1407853
vt 0.4483081 0.1407852
vt -0.8105806 5.32781
vt 0.8105814 5.327811
vt -0.8105817 -5.32781
vt 0.8105819 -5.32781

vn -7.641745E-08 -1 -5.960465E-08
vn 1 2.34557E-08 -1.192093E-07
vn 3.362562E-08 1 5.960465E-08
vn -1 5.960464E-08 1.192093E-07
vn 3.570437E-08 0 0.59902
vn -3.570437E-08 0 -0.59902
vn 0.7071072 -0.7071064 -4.968585E-07
vn 0.7071068 0.7071068 6.986895E-07
vn -0.7071065 0.707107 1.264405E-07
vn -0.7071068 -0.7071068 -6.986895E-07

usemtl Lit
f 1/1/1 2/2/1 3/3/2
f 2/2/1 4/4/2 3/3/2
f 3/5/2 4/6/2 5/7/3
f 4/6/2 6/8/3 5/7/3
f 5/1/3 6/2/3 7/3/4
f 6/2/3 8/4/4 7/3/4
f 7/5/4 8/6/4 1/7/1
f 8/6/4 2/8/1 1/7/1
f 3/9/5 9/10/5 1/11/5
f 5/12/5 9/10/5 3/9/5
f 7/13/5 9/10/5 5/12/5
f 1/11/5 9/10/5 7/13/5
f 2/12/6 10/10/6 4/9/6
f 4/9/6 10/10/6 6/11/6
f 6/11/6 10/10/6 8/13/6
f 8/13/6 10/10/6 2/12/6
f 11/14/7 12/15/7 13/16/7
f 12/15/7 14/17/7 13/16/7
f 12/18/8 15/19/8 14/20/8
f 15/19/8 16/21/8 14/20/8
f 15/14/9 17/22/9 16/23/9
f 17/22/9 18/17/9 16/23/9
f 17/18/10 11/19/10 18/20/10
f 11/19/10 13/21/10 18/20/10
f 13/24/5 14/25/5 18/26/5
f 14/25/5 16/27/5 18/26/5
f 17/27/6 15/26/6 11/25/6
f 15/26/6 12/24/6 11/25/6
f 19/14/8 20/22/8 21/23/8
f 20/22/8 22/17/8 21/23/8
f 20/18/9 23/19/9 22/20/9
f 23/19/9 24/21/9 22/20/9
f 23/14/10 25/22/10 24/23/10
f 25/22/10 26/17/10 24/23/10
f 25/18/7 19/19/7 26/20/7
f 19/19/7 21/21/7 26/20/7
f 21/24/5 22/25/5 26/26/5
f 22/25/5 24/27/5 26/26/5
f 25/27/6 23/26/6 19/25/6
f 23/26/6 20/24/6 19/25/6

